<?xml version="1.0" standalone="no"?>
<!DOCTYPE svg PUBLIC "-//W3C//DTD SVG 20010904//EN"
 "http://www.w3.org/TR/2001/REC-SVG-20010904/DTD/svg10.dtd">
<svg version="1.0" xmlns="http://www.w3.org/2000/svg"
 width="1280.000000pt" height="1280.000000pt" viewBox="0 0 1280.000000 1280.000000"
 preserveAspectRatio="xMidYMid meet">
<metadata>
Created by potrace 1.14, written by Peter Selinger 2001-2017
</metadata>
<g transform="translate(0.000000,1280.000000) scale(0.100000,-0.100000)"
fill="#000000" stroke="none">
<path d="M489 10346 c-2 -2 -20 -6 -39 -9 -61 -9 -160 -48 -188 -74 -7 -7 -17
-13 -22 -13 -5 0 -38 -29 -72 -64 -80 -80 -131 -172 -156 -281 -4 -16 -7
-1596 -7 -3510 0 -2945 2 -3488 14 -3530 56 -201 236 -368 435 -404 84 -15
11808 -15 11892 0 154 27 313 145 385 284 76 146 69 -195 66 3682 -2 3205 -4
3482 -19 3524 -41 116 -109 214 -191 277 -52 40 -125 82 -149 86 -7 1 -17 4
-23 8 -43 27 -279 28 -6025 28 -3243 0 -5899 -2 -5901 -4z m11371 -567 c217
-49 355 -264 315 -490 -8 -47 -59 -148 -92 -185 -73 -80 -167 -128 -270 -139
-32 -4 -60 -8 -62 -10 -1 -2 -13 0 -26 5 -13 5 -26 6 -29 3 -5 -5 -628 -8
-651 -3 -5 1 -14 2 -20 0 -14 -2 -448 -2 -460 0 -5 1 -14 2 -20 0 -14 -2 -448
-2 -460 0 -5 1 -14 1 -20 0 -23 -5 -176 -1 -185 5 -5 3 -10 1 -10 -5 0 -6 -3
-9 -7 -7 -5 3 -34 8 -66 11 -168 20 -298 127 -349 289 -69 221 63 462 287 522
40 11 245 14 1065 14 663 0 1031 -3 1060 -10z m-5318 -123 c85 2 261 -15 390
-37 84 -14 95 -16 178 -34 41 -9 86 -19 99 -21 14 -3 28 -7 33 -10 4 -3 18 -7
30 -9 65 -13 282 -88 413 -143 76 -32 250 -119 342 -171 83 -47 311 -195 323
-210 3 -3 34 -28 70 -56 311 -239 604 -577 808 -933 18 -31 60 -113 93 -182
34 -69 65 -133 70 -142 17 -34 87 -224 118 -320 26 -84 39 -131 56 -208 2 -8
4 -15 5 -15 1 0 3 -7 5 -15 1 -8 8 -40 14 -71 6 -30 13 -66 16 -80 2 -13 7
-42 10 -64 4 -22 8 -53 10 -70 2 -16 6 -43 9 -60 18 -94 26 -471 13 -630 -42
-509 -202 -1012 -450 -1415 -22 -36 -49 -81 -61 -100 -11 -19 -24 -36 -28 -38
-4 -2 -8 -10 -8 -17 0 -7 -4 -15 -8 -17 -5 -1 -26 -28 -47 -58 -152 -218 -434
-510 -656 -678 -133 -100 -249 -177 -384 -254 -91 -51 -289 -145 -385 -182
-52 -20 -104 -41 -115 -46 -46 -20 -289 -90 -364 -105 -13 -2 -30 -7 -39 -9
-20 -7 -180 -35 -237 -42 -22 -3 -51 -7 -65 -10 -99 -17 -505 -24 -655 -11
-223 20 -436 60 -640 121 -66 20 -127 38 -135 40 -114 31 -444 183 -605 279
-91 55 -283 182 -295 197 -3 3 -23 19 -46 35 -231 168 -513 471 -704 755 -176
264 -351 634 -416 885 -60 227 -78 314 -99 460 -3 23 -7 51 -10 64 -25 132
-25 652 1 784 2 11 6 38 8 61 3 22 10 66 16 96 6 30 13 71 16 90 3 19 7 43 10
52 3 9 6 25 8 35 2 10 9 38 16 63 7 25 13 50 14 55 2 6 9 30 16 55 7 25 14 50
16 55 7 35 48 152 55 160 5 5 9 15 9 23 0 8 6 28 14 45 8 18 29 66 46 107 38
91 161 328 201 388 16 24 29 45 29 48 0 6 121 185 130 194 3 3 27 33 53 67 26
34 53 68 60 75 7 7 29 33 49 58 20 25 76 86 125 135 183 186 319 300 516 431
62 41 117 78 124 84 7 5 15 10 18 10 3 0 22 11 43 24 74 47 337 175 422 205
19 7 44 17 55 22 23 10 192 68 215 74 8 2 58 15 110 29 83 21 163 39 275 61
28 5 136 20 215 29 19 3 114 8 210 12 96 3 177 9 180 11 2 2 6 1 7 -4 2 -4 31
-8 65 -7z"/>
<path d="M6336 8442 c-2 -1 -41 -5 -87 -7 -46 -3 -106 -9 -134 -14 -27 -6 -63
-12 -80 -15 -16 -3 -41 -7 -55 -11 -14 -3 -38 -8 -55 -11 -72 -12 -355 -117
-415 -154 -8 -5 -35 -19 -60 -31 -85 -43 -285 -181 -361 -250 -14 -13 -37 -33
-50 -45 -140 -122 -321 -360 -422 -554 -85 -164 -169 -406 -191 -550 -3 -19
-11 -69 -17 -110 -14 -88 -18 -394 -6 -495 11 -89 43 -254 65 -325 9 -30 17
-57 17 -60 1 -3 4 -12 8 -20 3 -8 18 -49 33 -90 23 -64 89 -206 136 -290 139
-253 427 -549 693 -711 87 -52 244 -132 262 -132 7 0 13 -4 13 -7 0 -6 178
-70 239 -86 58 -15 152 -36 186 -40 21 -3 42 -7 45 -9 40 -25 600 -25 640 0 3
2 23 6 45 9 210 34 507 148 685 265 30 20 60 38 65 41 14 7 69 44 75 50 3 3
23 18 45 35 70 52 227 200 285 270 122 146 182 233 256 370 27 50 49 92 49 95
0 3 3 10 7 15 23 37 107 273 123 348 2 10 6 26 9 35 6 19 14 62 21 107 3 17 7
41 10 54 25 124 25 477 0 594 -2 12 -7 40 -10 62 -13 96 -60 267 -105 380 -30
75 -118 260 -133 280 -4 5 -31 46 -59 90 -139 214 -358 438 -548 561 -25 16
-49 33 -55 37 -32 26 -298 167 -315 167 -4 0 -25 8 -46 17 -22 9 -43 18 -49
19 -5 1 -37 11 -70 22 -50 18 -149 43 -215 56 -15 3 -95 16 -140 22 -83 12
-327 24 -334 16z"/>
</g>
</svg>
